<mxfile host="app.diagrams.net" agent="Mozilla/5.0 (Windows NT 10.0; Win64; x64) AppleWebKit/537.36 (KHTML, like Gecko) Chrome/131.0.0.0 Safari/537.36" version="25.0.3">
  <diagram name="Page-1" id="bd83a815-5ea8-2e97-e5ec-87c9f400f2fa">
    <mxGraphModel dx="1434" dy="738" grid="1" gridSize="10" guides="1" tooltips="1" connect="1" arrows="1" fold="1" page="1" pageScale="1.5" pageWidth="1169" pageHeight="826" background="none" math="0" shadow="0">
      <root>
        <mxCell id="0" style=";html=1;" />
        <mxCell id="1" style=";html=1;" parent="0" />
        <mxCell id="1516e18e63f93b96-1" value="&lt;table border=&quot;1&quot; width=&quot;100%&quot; cellpadding=&quot;4&quot; style=&quot;width: 100% ; height: 100% ; border-collapse: collapse&quot;&gt;&lt;tbody&gt;&lt;tr style=&quot;background-color: #a7c942 ; color: #ffffff ; border: 1px solid #98bf21&quot;&gt;&lt;th&gt;Trust/Domain&lt;/th&gt;&lt;th&gt;Interpretation of rules and transfer &lt;br&gt;of implicit domain knowledge&lt;/th&gt;&lt;th&gt;Machine-readable exchange information &lt;br&gt;requirements in BIM&lt;/th&gt;&lt;th&gt;Rule implementation / &lt;br&gt;Automatic system check / Systems architecture&lt;/th&gt;&lt;th&gt;&lt;br&gt;&lt;/th&gt;&lt;th&gt;Other?&lt;/th&gt;&lt;/tr&gt;&lt;tr style=&quot;border: 1px solid #98bf21&quot;&gt;&lt;td style=&quot;background-color: #a7c942 ; color: #ffffff ; border: 1px solid #98bf21&quot;&gt;Fire safety&amp;nbsp;&lt;/td&gt;&lt;td&gt;Case studies with: Rase, DCR graphs, NLP, LLMs, &lt;br&gt;expert systems, knowledge graphs, &lt;br&gt;linked data (5 star LD), FireBIM star-system, &lt;br&gt;diff. rule languages&lt;br&gt;&lt;br&gt;Interview-based feedback from fire experts&lt;br&gt;&lt;/td&gt;&lt;td&gt;Case studies with:&lt;br&gt;IDS, Shaql, Sparql, Mermaid, &lt;br&gt;other technologies&amp;nbsp;&lt;br&gt;&lt;br&gt;Interview-based feedback from BIM experts&lt;br&gt;&lt;br&gt;Creation of reference architectures (UML, SysML)&amp;nbsp;&lt;br&gt;and data modeling of advanced domain systems (DSLs)&lt;br&gt;Part of WP3 - systematic evaluations are based on &lt;br&gt;methods developed in FireBIM. Evaluations are KPI-based&lt;br&gt;not yet fully developed at this stage&lt;/td&gt;&lt;td&gt;&lt;span style=&quot;background-color: rgb(234, 242, 211);&quot;&gt;Evaluation of the current methods for integration&lt;/span&gt;&lt;br style=&quot;background-color: rgb(234, 242, 211);&quot;&gt;&lt;span style=&quot;background-color: rgb(234, 242, 211);&quot;&gt;with BIM (domain integration in IFC). Focus on quantitative&lt;/span&gt;&lt;br style=&quot;background-color: rgb(234, 242, 211);&quot;&gt;&lt;span style=&quot;background-color: rgb(234, 242, 211);&quot;&gt;rule implementations: precision, flexibility, speed, etc.&amp;nbsp;&lt;/span&gt;&lt;br style=&quot;background-color: rgb(234, 242, 211);&quot;&gt;&lt;span style=&quot;background-color: rgb(234, 242, 211);&quot;&gt;qualitative analysis on transparency, safety, longevity&lt;/span&gt;&lt;/td&gt;&lt;td&gt;&lt;br&gt;&lt;/td&gt;&lt;td&gt;&lt;br&gt;&lt;/td&gt;&lt;/tr&gt;&lt;tr style=&quot;background-color: #eaf2d3 ; border: 1px solid #98bf21&quot;&gt;&lt;td style=&quot;background-color: #a7c942 ; color: #ffffff ; border: 1px solid #98bf21&quot;&gt;Environmental sustainability&lt;/td&gt;&lt;td&gt;Case studies transfer the most promising methods&amp;nbsp;&lt;br&gt;from above. Further developing the methods and/or &lt;br&gt;challenging the methods where it lacks improving trust.&lt;br&gt;Additional methods for consideration ACC, &lt;br&gt;algorithmic decision-making (ADM) systems,&lt;br&gt;administrative Turing test. Domain experts from DTU Sustain, &lt;br&gt;and industry partnerships are used.&lt;/td&gt;&lt;td&gt;Analysis of existing state of art system architectures on &lt;br&gt;LCA and BIM&lt;br&gt;Evaluation of software architecture pat &lt;span style=&quot;white-space: pre;&quot;&gt;&#x9;&lt;/span&gt;terns: &lt;br&gt;DDD, microservices, layered, soa, event-driven etc.&lt;br&gt;&lt;br&gt;&lt;/td&gt;&lt;td&gt;Evaluation of the current methods for integration&lt;br&gt;with BIM (domain integration in IFC). Focus on quantitative&lt;br&gt;rule implementations: precision, flexibility, speed, etc.&amp;nbsp;&lt;br&gt;qualitative analysis on transparency, safety, longevity&lt;/td&gt;&lt;td&gt;&lt;br&gt;&lt;/td&gt;&lt;td&gt;&lt;br&gt;&lt;/td&gt;&lt;/tr&gt;&lt;tr style=&quot;border: 1px solid #98bf21&quot;&gt;&lt;td style=&quot;background-color: #a7c942 ; color: #ffffff ; border: 1px solid #98bf21&quot;&gt;Social sustainability&lt;/td&gt;&lt;td&gt;The final challenge of systematic interpretation and transfer&lt;br&gt;of domain knowledge methods. If satisfactory methods are&lt;br&gt;found, these will be applied as above. Alternatively a new proposal&lt;br&gt;of a method is developed and tested with the aid of domain experts&lt;br&gt;in the field of Universal Design. Domain experts from VIA, &lt;br&gt;Bevica Network and industry partnerships are used.&lt;/td&gt;&lt;td&gt;&lt;/td&gt;&lt;td&gt;&lt;br&gt;&lt;/td&gt;&lt;td&gt;&lt;br&gt;&lt;/td&gt;&lt;td&gt;&lt;br&gt;&lt;/td&gt;&lt;/tr&gt;&lt;tr style=&quot;background-color: #eaf2d3 ; border: 1px solid #98bf21&quot;&gt;&lt;td style=&quot;background-color: #a7c942 ; color: #ffffff ; border: 1px solid #98bf21&quot;&gt;&lt;/td&gt;&lt;td&gt;&lt;/td&gt;&lt;td&gt;&lt;/td&gt;&lt;td&gt;&lt;/td&gt;&lt;td&gt;&lt;/td&gt;&lt;td&gt;&lt;/td&gt;&lt;/tr&gt;&lt;/tbody&gt;&lt;/table&gt;" style="text;html=1;strokeColor=#c0c0c0;fillColor=#ffffff;overflow=fill;rounded=0;shadow=1;fontSize=14;fontColor=#000000;" parent="1" vertex="1">
          <mxGeometry x="110" y="60" width="1910" height="660" as="geometry" />
        </mxCell>
      </root>
    </mxGraphModel>
  </diagram>
</mxfile>
